<svg width="647" height="153" viewBox="0 0 647 153" fill="none" xmlns="http://www.w3.org/2000/svg">
<path d="M578.517 149.128C585.867 149.128 592.8 148.92 599.317 148.504C605.835 147.949 611.936 146.701 617.621 144.76C623.445 142.68 628.715 139.56 633.429 135.4C638.283 131.101 642.651 125.208 646.533 117.72L638.213 151H542.117V30.7759C542.117 26.8932 541.771 23.4266 541.077 20.3759C540.523 17.1866 539.413 14.4826 537.749 12.2639C536.085 10.0452 533.797 8.38124 530.885 7.2719C527.973 6.0239 524.299 5.3999 519.861 5.3999H632.805L641.333 38.6799C637.451 31.1919 633.083 25.3679 628.229 21.2079C623.376 16.9092 618.107 13.7892 612.421 11.8479C606.736 9.76791 600.565 8.51991 593.909 8.1039C587.392 7.54924 580.528 7.2719 573.317 7.2719H568.949C566.731 7.54924 564.928 8.03458 563.541 8.72791C562.155 9.42124 561.115 10.4612 560.421 11.8479C559.728 13.0959 559.243 14.7599 558.965 16.8399C558.827 18.7812 558.757 21.2772 558.757 24.3279V70.7119C562.917 69.0479 567.147 68.2159 571.445 68.2159C575.883 68.2159 580.32 68.8399 584.757 70.0879C589.195 71.1972 593.563 72.4452 597.861 73.8319C602.16 75.0799 606.32 76.3279 610.341 77.5759C614.501 78.6852 618.453 79.2399 622.197 79.2399C627.051 79.2399 631.211 77.9919 634.677 75.4959C630.795 80.6266 626.843 84.1626 622.821 86.1039C618.8 88.0452 614.571 89.0159 610.133 89.0159C605.973 89.0159 601.744 88.3919 597.445 87.1439C593.285 85.8959 589.056 84.5092 584.757 82.9839C580.459 81.3199 576.091 79.8639 571.653 78.6159C567.355 77.2292 563.056 76.4666 558.757 76.3279V131.656C558.757 135.539 558.896 138.659 559.173 141.016C559.589 143.235 560.421 144.968 561.669 146.216C563.056 147.464 564.997 148.296 567.493 148.712C570.128 148.989 573.664 149.128 578.101 149.128H578.517Z" fill="white"/>
<path d="M458.651 5.3999C498.587 5.3999 518.555 20.6532 518.555 51.1599C518.555 57.5386 517.376 63.5706 515.019 69.2559C512.8 74.8026 509.195 79.6559 504.203 83.8159C499.211 87.9759 492.763 91.2346 484.859 93.5919C477.093 95.9492 467.664 97.1279 456.571 97.1279C449.083 97.1279 440.624 96.5039 431.195 95.2559V125.624C431.195 129.507 431.541 133.043 432.235 136.232C432.928 139.283 434.107 141.917 435.771 144.136C437.435 146.355 439.653 148.088 442.427 149.336C445.339 150.445 449.013 151 453.451 151H414.555V30.7759C414.555 26.8932 414.208 23.4266 413.515 20.3759C412.96 17.1866 411.851 14.4826 410.187 12.2639C408.523 10.0452 406.235 8.38124 403.323 7.2719C400.411 6.0239 396.736 5.3999 392.299 5.3999H458.651ZM431.195 73.4159C432.165 76.7439 433.691 79.7252 435.771 82.3599C437.989 84.9946 440.485 87.2132 443.259 89.0159C446.171 90.8186 449.36 92.2052 452.827 93.1759C456.293 94.1466 459.76 94.6319 463.227 94.6319C467.803 94.6319 472.309 93.7999 476.747 92.1359C481.323 90.4719 485.344 87.9066 488.811 84.4399C492.416 80.9732 495.259 76.5359 497.339 71.1279C499.557 65.7199 500.667 59.2026 500.667 51.5759C500.667 43.8106 499.627 37.1546 497.547 31.6079C495.605 25.9226 492.763 21.2772 489.019 17.6719C485.413 14.0666 480.976 11.4319 475.707 9.76791C470.576 8.1039 464.891 7.2719 458.651 7.2719H441.387C439.168 7.54924 437.365 8.03458 435.979 8.72791C434.592 9.42124 433.552 10.4612 432.859 11.8479C432.165 13.0959 431.68 14.7599 431.403 16.8399C431.264 18.7812 431.195 21.2772 431.195 24.3279V73.4159Z" fill="white"/>
<path d="M288.879 30.776C288.879 36.6 290.266 41.592 293.039 45.752C295.951 49.912 299.695 53.5173 304.271 56.568C308.986 59.6186 314.255 62.2533 320.079 64.472C326.042 66.6906 332.143 68.9093 338.383 71.128C344.623 73.208 350.655 75.4266 356.479 77.784C362.442 80.0026 367.711 82.7066 372.287 85.896C377.002 88.9466 380.746 92.6213 383.519 96.92C386.431 101.08 387.887 106.211 387.887 112.312C387.887 119.8 386.57 126.179 383.935 131.448C381.439 136.579 377.903 140.739 373.327 143.928C368.89 147.117 363.621 149.405 357.519 150.792C351.418 152.179 344.901 152.872 337.967 152.872C332.975 152.872 327.845 152.387 322.575 151.416C317.306 150.584 312.175 149.683 307.183 148.712C302.191 147.603 297.338 146.632 292.623 145.8C288.047 144.968 283.887 144.552 280.143 144.552C276.954 144.552 274.111 144.968 271.615 145.8C272.725 141.501 275.082 138.035 278.687 135.4C282.431 132.627 287.354 131.24 293.455 131.24C297.199 131.24 301.637 132.003 306.767 133.528C312.037 135.053 317.583 136.717 323.407 138.52C329.231 140.323 335.125 141.987 341.087 143.512C347.05 145.037 352.527 145.8 357.519 145.8C363.759 145.8 368.89 144.136 372.911 140.808C376.933 137.48 378.943 131.309 378.943 122.296C378.943 116.195 376.517 111.133 371.663 107.112C366.81 103.091 360.709 99.4853 353.359 96.296C346.149 93.1066 338.245 90.1253 329.647 87.352C321.189 84.5786 313.285 81.3893 305.935 77.784C298.725 74.1786 292.693 69.9493 287.839 65.096C282.986 60.104 280.559 53.864 280.559 46.376C280.559 38.3333 281.877 31.4693 284.511 25.784C287.146 19.96 290.613 15.176 294.911 11.432C299.349 7.68797 304.341 4.98397 309.887 3.31997C315.434 1.5173 321.119 0.615967 326.943 0.615967C330.965 0.615967 335.055 1.03197 339.215 1.86398C343.375 2.69597 347.605 3.5973 351.903 4.56797C356.202 5.53864 360.501 6.43997 364.799 7.27197C369.098 8.10397 373.397 8.51996 377.695 8.51996C381.162 8.51996 384.282 8.24263 387.055 7.68797C387.055 9.35197 386.709 11.1546 386.015 13.096C385.461 14.8986 384.421 16.632 382.895 18.296C381.37 19.96 379.359 21.3466 376.863 22.456C374.506 23.4266 371.525 23.912 367.919 23.912C363.343 23.912 358.698 23.1493 353.983 21.624C349.407 19.96 344.693 18.2266 339.839 16.424C335.125 14.4826 330.271 12.7493 325.279 11.224C320.287 9.69864 315.018 9.07464 309.471 9.35197C303.509 9.6293 298.586 11.432 294.703 14.76C290.821 17.9493 288.879 23.288 288.879 30.776Z" fill="white"/>
<path d="M257.707 118.552C260.203 124.515 261.728 129.645 262.283 133.944C262.976 138.243 262.976 141.779 262.283 144.552C261.589 147.187 260.272 149.128 258.331 150.376C256.389 151.624 254.171 152.248 251.675 152.248C247.653 152.248 244.117 150.931 241.067 148.296C238.155 145.661 235.035 142.749 231.707 139.56C228.517 136.232 224.773 133.251 220.475 130.616C216.315 127.981 210.976 126.664 204.459 126.664C198.912 126.664 194.336 128.051 190.731 130.824C187.125 133.459 183.797 136.44 180.747 139.768C177.835 143.096 174.923 146.147 172.011 148.92C169.237 151.555 165.771 152.872 161.611 152.872C158.837 152.872 156.341 152.248 154.123 151C151.904 149.891 150.24 148.088 149.131 145.592C148.16 142.957 147.952 139.56 148.507 135.4C149.2 131.101 151.003 125.971 153.915 120.008L200.091 22.8719L193.227 5.3999H210.491L257.707 118.552ZM236.283 131.032C237.808 131.032 238.848 130.685 239.403 129.992C239.957 129.299 240.304 128.467 240.443 127.496C240.581 126.525 240.512 125.485 240.235 124.376C239.957 123.267 239.611 122.227 239.195 121.256L201.547 26.4079L172.427 87.3519C170.901 90.4026 169.376 93.6612 167.851 97.1279C166.325 100.456 164.939 103.784 163.691 107.112C162.443 110.301 161.333 113.352 160.363 116.264C159.392 119.037 158.699 121.395 158.283 123.336C157.312 128.051 157.451 131.448 158.699 133.528C159.947 135.469 161.819 136.44 164.315 136.44C167.781 136.44 170.832 135.816 173.467 134.568C176.24 133.181 179.083 131.725 181.995 130.2C184.907 128.675 188.096 127.288 191.563 126.04C195.168 124.653 199.467 123.96 204.459 123.96C208.757 123.96 212.501 124.376 215.691 125.208C219.019 125.901 221.931 126.664 224.427 127.496C226.923 128.328 229.072 129.16 230.875 129.992C232.816 130.685 234.619 131.032 236.283 131.032Z" fill="white"/>
<path d="M139.262 95.2561C137.459 104.547 134.27 112.728 129.694 119.8C125.118 126.872 119.571 132.765 113.054 137.48C106.675 142.195 99.6032 145.731 91.8379 148.088C84.2112 150.445 76.4459 151.624 68.5419 151.624C60.0832 151.624 51.7632 150.237 43.5819 147.464C35.4006 144.552 28.1206 140.253 21.7419 134.568C15.5019 128.883 10.4406 121.741 6.55789 113.144C2.67522 104.547 0.733887 94.4934 0.733887 82.9841C0.733887 72.0294 2.32855 61.7681 5.51789 52.2001C8.84589 42.4934 13.5606 34.1041 19.6619 27.0321C25.9019 19.8214 33.4592 14.1361 42.3339 9.97608C51.3472 5.81608 61.4699 3.73608 72.7019 3.73608C77.0006 3.73608 81.3686 4.01341 85.8059 4.56807C90.2432 5.12274 94.6112 5.81608 98.9099 6.64808C103.209 7.34142 107.369 7.96541 111.39 8.52007C115.55 9.07474 119.433 9.35207 123.038 9.35207C127.059 9.35207 130.526 8.86674 133.438 7.89608C132.606 14.1361 130.457 18.4347 126.99 20.7921C123.662 23.1494 119.502 24.3281 114.51 24.3281C110.489 24.3281 106.051 23.7734 101.198 22.6641C96.3446 21.5547 91.3526 20.3761 86.2219 19.1281C81.0912 17.8801 75.9606 16.7014 70.8299 15.5921C65.6992 14.4827 60.8459 13.9281 56.2699 13.9281C49.8912 13.9281 43.9286 14.8987 38.3819 16.8401C32.8352 18.7814 27.9819 21.7627 23.8219 25.7841C19.6619 29.8054 16.3339 34.8667 13.8379 40.9681C11.4806 46.9307 10.3019 54.0721 10.3019 62.3921C10.3019 75.2881 12.1046 86.4507 15.7099 95.8801C19.4539 105.309 24.3072 113.075 30.2699 119.176C36.2326 125.139 43.0966 129.576 50.8619 132.488C58.6272 135.4 66.5312 136.856 74.5739 136.856C81.2299 136.856 87.7472 135.955 94.1259 134.152C100.643 132.211 106.745 129.507 112.43 126.04C118.254 122.435 123.385 118.067 127.822 112.936C132.398 107.667 136.003 101.704 138.638 95.0481L139.262 95.2561Z" fill="white"/>
</svg>
